{"title":"Once Upon a Time in America-720p MP4 AAC x264 BRRip 1984-CC","uid":7328778,"size":4013711275,"categoryP":"video","categoryS":"hd___movies","magnet":"?xt=urn:btih:518df607844ef55e970f80c8e1f8eb94959a0382&amp;dn=Once+Upon+a+Time+in+America-720p+MP4+AAC+x264+BRRip+1984-CC&amp;tr=udp%3A%2F%2Ftracker.openbittorrent.com%3A80&amp;tr=udp%3A%2F%2Fopen.demonii.com%3A1337&amp;tr=udp%3A%2F%2Ftracker.coppersurfer.tk%3A6969&amp;tr=udp%3A%2F%2Fexodus.desync.com%3A6969","seeders":2,"leechers":1,"uploader":"Caveman44","files":-1,"time":1338843257,"description":"Source: Once Upon a Time in America 1984 720p BluRay DTS x264-CtrlHD\n\nSubs: Arabic, Bulgarian, Chinese, Czech, Danish, Dutch, English, French, Greek, Hebrew, Italian, Romanian, Servian, Slovenian, Spanish, Turkish and Vietnamese.\n\nSample and Screens included.\n\nGeneral\nComplete name                    : Once Upon a Time in America-720p MP4 AAC x264 BRRip 1984-CC.mp4\nFormat                           : MPEG-4\nFormat profile                   : Base Media\nCodec ID                         : isom\nFile size                        : 3.69 GiB\nDuration                         : 3h 49mn\nOverall bit rate                 : 2 305 Kbps\nEncoded date                     : UTC 2012-06-02 15:03:02\n\nVideo\nID                               : 1\nFormat                           : AVC\nFormat/Info                      : Advanced Video Codec\nFormat profile                   : &lt;a class=&quot;__cf_email__&quot; href=&quot;/cdn-cgi/l/email-protection&quot; data-cfemail=&quot;3870515f5078740b1609&quot;&gt;[email&amp;#160;protected]&lt;/a&gt;&lt;script cf-hash='f9e31' type=&quot;text/javascript&quot;&gt;\n/* &lt;![CDATA[ */!function(){try{var t=&quot;currentScript&quot;in document?document.currentScript:function(){for(var t=document.getElementsByTagName(&quot;script&quot;),e=t.length;e--;)if(t[e].getAttribute(&quot;cf-hash&quot;))return t[e]}();if(t&amp;&amp;t.previousSibling){var e,r,n,i,c=t.previousSibling,a=c.getAttribute(&quot;data-cfemail&quot;);if(a){for(e=&quot;&quot;,r=parseInt(a.substr(0,2),16),n=2;a.length-n;n+=2)i=parseInt(a.substr(n,2),16)^r,e+=String.fromCharCode(i);e=document.createTextNode(e),c.parentNode.replaceChild(e,c)}}}catch(u){}}();/* ]]&gt; */&lt;/script&gt;\nFormat settings, CABAC           : Yes\nFormat settings, ReFrames        : 5 frames\nCodec ID                         : avc1\nCodec ID/Info                    : Advanced Video Coding\nDuration                         : 3h 49mn\nBit rate mode                    : Variable\nBit rate                         : 1 922 Kbps\nMaximum bit rate                 : 44.1 Mbps\nWidth                            : 1 280 pixels\nHeight                           : 720 pixels\nDisplay aspect ratio             : 16:9\nFrame rate mode                  : Variable\nFrame rate                       : 23.976 fps\nMinimum frame rate               : 19.048 fps\nMaximum frame rate               : 24.390 fps\nResolution                       : 24 bits\nColorimetry                      : 4:2:0\nScan type                        : Progressive\nBits/(Pixel*Frame)               : 0.087\nStream size                      : 3.07 GiB (83%)\nWriting library                  : x264 core 112\n\nAudio\nID                               : 2\nFormat                           : AAC\nFormat/Info                      : Advanced Audio Codec\nFormat version                   : Version 4\nFormat profile                   : LC\nFormat settings, SBR             : No\nCodec ID                         : 40\nDuration                         : 3h 49mn\nBit rate mode                    : Variable\nBit rate                         : 384 Kbps\nMaximum bit rate                 : 618 Kbps\nChannel(s)                       : 6 channels\nChannel positions                : Front: L C R, Rear: L R, LFE\nSampling rate                    : 48.0 KHz\nResolution                       : 16 bits\nStream size                      : 630 MiB (17%)\nLanguage                         : English\n\nEnjoy...\n\nRequested by DreamExtractor.","torrent":{"xt":"urn:btih:518df607844ef55e970f80c8e1f8eb94959a0382","amp;dn":"Once+Upon+a+Time+in+America-720p+MP4+AAC+x264+BRRip+1984-CC","amp;tr":["udp%3A%2F%2Ftracker.openbittorrent.com%3A80","udp%3A%2F%2Fopen.demonii.com%3A1337","udp%3A%2F%2Ftracker.coppersurfer.tk%3A6969","udp%3A%2F%2Fexodus.desync.com%3A6969"],"infoHash":"518df607844ef55e970f80c8e1f8eb94959a0382","infoHashBuffer":{"type":"Buffer","data":[81,141,246,7,132,78,245,94,151,15,128,200,225,248,235,148,149,154,3,130]},"announce":[],"urlList":[]}}